<?xml version="1.0" standalone="no"?>
<!DOCTYPE svg PUBLIC "-//W3C//DTD SVG 20010904//EN"
 "http://www.w3.org/TR/2001/REC-SVG-20010904/DTD/svg10.dtd">
<svg version="1.0" xmlns="http://www.w3.org/2000/svg"
 width="512.000000pt" height="512.000000pt" viewBox="0 0 512.000000 512.000000"
 preserveAspectRatio="xMidYMid meet">

<g transform="translate(0.000000,512.000000) scale(0.100000,-0.100000)"
fill="#000000" stroke="none">
<path d="M2390 5114 c-610 -46 -1169 -294 -1604 -714 -429 -414 -684 -925
-767 -1540 -19 -139 -16 -487 5 -635 67 -470 237 -873 525 -1245 80 -104 309
-336 411 -416 203 -159 495 -325 710 -403 939 -338 1953 -125 2664 559 614
592 889 1433 745 2282 -56 331 -197 683 -387 968 -415 623 -1047 1019 -1792
1125 -107 15 -410 26 -510 19z m692 -982 c79 -39 129 -93 158 -169 18 -48 20
-78 20 -298 l0 -245 408 0 c407 0 407 0 458 -24 28 -13 65 -41 83 -62 64 -78
62 -35 59 -1170 l-3 -1029 -23 -44 c-28 -51 -62 -85 -117 -115 l-40 -21 -1525
0 -1525 0 -40 21 c-51 28 -91 68 -119 119 l-21 40 -3 1029 c-3 1135 -5 1092
59 1170 18 21 55 49 83 62 51 24 51 24 458 24 l407 0 3 263 c3 248 4 264 25
303 33 61 70 101 121 131 86 51 104 52 572 50 l435 -2 67 -33z"/>
<path d="M2095 4021 c-50 -22 -91 -69 -105 -119 -5 -20 -10 -137 -10 -259 l0
-223 50 0 50 0 0 188 c0 178 1 191 23 233 16 29 40 54 72 74 l48 30 337 0 337
0 48 -30 c32 -20 56 -45 72 -74 22 -42 23 -55 23 -233 l0 -188 50 0 50 0 0
223 c0 238 -6 279 -47 328 -58 68 -60 69 -533 69 -391 0 -428 -2 -465 -19z"/>
<path d="M2225 3795 c-25 -24 -25 -27 -25 -200 l0 -175 361 0 360 0 -3 181
c-3 176 -4 181 -27 200 -22 18 -43 19 -333 19 l-309 0 -24 -25z"/>
<path d="M1063 3289 c-17 -5 -43 -23 -57 -40 l-26 -31 0 -203 0 -204 85 -61
c46 -33 133 -90 192 -126 l108 -65 3 31 c6 58 17 60 332 60 242 0 289 -2 308
-16 21 -15 22 -21 22 -168 l0 -153 83 -17 c137 -27 125 -37 129 117 2 95 7
139 17 150 12 15 46 17 301 17 255 0 289 -2 301 -17 10 -11 16 -58 19 -158 l5
-141 85 13 c47 6 93 12 103 13 15 0 17 15 17 164 0 159 1 165 22 180 19 14 66
16 308 16 333 0 330 1 330 -81 l0 -49 43 21 c71 37 188 109 270 167 l77 55 0
228 0 227 -26 31 c-14 17 -42 35 -62 41 -48 13 -2943 12 -2989 -1z"/>
<path d="M980 1910 c0 -813 -2 -783 60 -815 26 -13 207 -15 1520 -15 1313 0
1494 2 1520 15 62 32 60 4 60 790 0 393 -2 715 -5 715 -2 0 -42 -24 -87 -54
-46 -30 -131 -79 -189 -110 l-106 -56 -5 -69 c-20 -277 -356 -406 -556 -214
-21 21 -43 46 -49 56 -10 18 -14 18 -136 1 l-125 -17 -4 -117 c-2 -80 -7 -122
-17 -133 -12 -15 -46 -17 -301 -17 -255 0 -289 2 -301 17 -10 11 -15 53 -17
138 l-4 121 -116 22 -117 22 -20 -28 c-11 -15 -40 -46 -64 -69 -119 -116 -327
-114 -449 5 -70 68 -95 128 -100 234 l-4 87 -86 47 c-48 26 -132 76 -187 113
-55 36 -103 67 -107 69 -5 2 -8 -330 -8 -738z"/>
<path d="M1490 2422 c0 -117 8 -159 41 -207 36 -52 84 -78 149 -83 77 -6 120
10 168 62 51 56 62 95 62 229 l0 107 -75 0 -74 0 -3 -147 -3 -147 -27 -16
c-25 -13 -31 -13 -55 0 l-28 16 -3 147 -3 147 -74 0 -75 0 0 -108z"/>
<path d="M3210 2423 c0 -134 11 -173 62 -229 48 -52 91 -68 168 -62 65 5 113
31 149 83 33 48 41 90 41 207 l0 108 -75 0 -74 0 -3 -147 -3 -147 -27 -16
c-25 -13 -31 -13 -55 0 l-28 16 -3 147 -3 147 -74 0 -75 0 0 -107z"/>
<path d="M2370 2225 l0 -235 190 0 190 0 0 235 0 235 -190 0 -190 0 0 -235z"/>
</g>
</svg>
