<?xml version="1.0" encoding="UTF-8" standalone="no"?> <svg xmlns="http://www.w3.org/2000/svg" width="512" height="367.521" viewBox="0 0 512 367.521">
  <g id="Layer_x0020_1" transform="translate(-94 -166.24)">
    <g id="_844606064">
      <path id="_844605704" d="M514.541,196H177.056A24.31,24.31,0,0,0,152.8,220.26V433.744A24.325,24.325,0,0,0,177.056,458H514.541A24.33,24.33,0,0,0,538.8,433.744V220.26A24.345,24.345,0,0,0,514.541,196Z" fill="#69b0ee" fill-rule="evenodd"/>
      <path id="_844606040" d="M556.98,473.5V198.849a32.719,32.719,0,0,0-32.608-32.609H163.023a32.719,32.719,0,0,0-32.609,32.609V473.5ZM182.015,199.851H509.581A23.629,23.629,0,0,1,533.126,223.4v207.21a23.614,23.614,0,0,1-23.545,23.543H182.015a23.609,23.609,0,0,1-23.544-23.543V223.4a23.6,23.6,0,0,1,23.544-23.545Z" fill="#575b6d"/>
      <path id="_844606256" d="M556.98,468.539v-.04H130.414v.04H100a6,6,0,0,0-6,6V501.15a32.719,32.719,0,0,0,32.61,32.61H573.39A32.719,32.719,0,0,0,606,501.15V474.539a6,6,0,0,0-6-6H556.981Z" fill="#414451"/>
      <path id="_844605968" d="M533.127,430.607V223.4a23.429,23.429,0,0,0-5.633-15.23L166.018,447.846a23.456,23.456,0,0,0,16,6.3H509.581a23.614,23.614,0,0,0,23.545-23.543Z" fill="#5f9ed6" fill-rule="evenodd"/>
    </g>
    <path id="Path_290" data-name="Path 290" d="M389.7,252.494a6,6,0,0,0,0,12h54.887a6,6,0,0,0,0-12Z" fill="#1d4699"/>
    <path id="Path_291" data-name="Path 291" d="M389.7,285a6,6,0,0,0,0,12h75.513a6,6,0,0,0,0-12Z" fill="#1d4699"/>
    <path id="Path_292" data-name="Path 292" d="M389.7,317.5a6,6,0,0,0,0,12h90a6,6,0,0,0,0-12Z" fill="#1d4699"/>
    <path id="Path_293" data-name="Path 293" d="M389.7,350a6,6,0,0,0,0,12h90a6,6,0,0,0,0-12Z" fill="#1d4699"/>
    <path id="Path_294" data-name="Path 294" d="M389.7,382.505a6,6,0,0,0,0,12h90a6,6,0,0,0,0-12Z" fill="#1d4699"/>
    <path id="Path_295" data-name="Path 295" d="M272.145,263.492A33.052,33.052,0,0,1,295.9,273.608a34.795,34.795,0,0,1,0,48.363,32.957,32.957,0,0,1-47.517,0,34.795,34.795,0,0,1,0-48.363A33.059,33.059,0,0,1,272.145,263.492Z" fill="#fbd0a5"/>
    <path id="Path_296" data-name="Path 296" d="M201.981,383.1a5.983,5.983,0,0,0,11.438,3.515,63.562,63.562,0,0,1,22.437-32.083,60.255,60.255,0,0,1,72.579,0,63.552,63.552,0,0,1,22.436,32.083,5.983,5.983,0,1,0,11.438-3.515,75.563,75.563,0,0,0-26.7-38.131,72.021,72.021,0,0,0-86.922,0,75.577,75.577,0,0,0-26.7,38.131Z" fill="#ea735d"/>
  </g>
</svg>
